<mxfile host="app.diagrams.net" modified="2022-11-09T02:00:25.453Z" agent="5.0 (Windows NT 10.0; Win64; x64) AppleWebKit/537.36 (KHTML, like Gecko) Chrome/107.0.0.0 Safari/537.36" etag="mJxsWf74KT0gUDJ06alD" version="20.4.0" type="github">
  <diagram id="OgBsXzayrfzbnuxYBqkF" name="第 1 页">
    <mxGraphModel dx="1550" dy="835" grid="1" gridSize="10" guides="1" tooltips="1" connect="1" arrows="1" fold="1" page="1" pageScale="1" pageWidth="827" pageHeight="1169" math="0" shadow="0">
      <root>
        <mxCell id="0" />
        <mxCell id="1" parent="0" />
        <mxCell id="MGDYfqujMYC1qWBJG7Sb-1" value="&lt;b&gt;邮件申请&lt;/b&gt;" style="rounded=1;whiteSpace=wrap;html=1;" vertex="1" parent="1">
          <mxGeometry x="140" y="440" width="100" height="40" as="geometry" />
        </mxCell>
        <mxCell id="MGDYfqujMYC1qWBJG7Sb-18" value="" style="edgeStyle=orthogonalEdgeStyle;rounded=0;orthogonalLoop=1;jettySize=auto;html=1;" edge="1" parent="1" source="MGDYfqujMYC1qWBJG7Sb-3" target="MGDYfqujMYC1qWBJG7Sb-17">
          <mxGeometry relative="1" as="geometry" />
        </mxCell>
        <mxCell id="MGDYfqujMYC1qWBJG7Sb-3" value="&lt;b&gt;测试&lt;/b&gt;" style="rounded=1;whiteSpace=wrap;html=1;" vertex="1" parent="1">
          <mxGeometry x="280" y="440" width="100" height="40" as="geometry" />
        </mxCell>
        <mxCell id="MGDYfqujMYC1qWBJG7Sb-22" style="edgeStyle=orthogonalEdgeStyle;rounded=0;orthogonalLoop=1;jettySize=auto;html=1;entryX=0.5;entryY=0;entryDx=0;entryDy=0;exitX=0.5;exitY=0;exitDx=0;exitDy=0;" edge="1" parent="1" source="MGDYfqujMYC1qWBJG7Sb-4" target="MGDYfqujMYC1qWBJG7Sb-3">
          <mxGeometry relative="1" as="geometry">
            <Array as="points">
              <mxPoint x="650" y="390" />
              <mxPoint x="330" y="390" />
            </Array>
          </mxGeometry>
        </mxCell>
        <mxCell id="MGDYfqujMYC1qWBJG7Sb-23" value="" style="edgeStyle=orthogonalEdgeStyle;rounded=0;orthogonalLoop=1;jettySize=auto;html=1;" edge="1" parent="1" source="MGDYfqujMYC1qWBJG7Sb-4" target="MGDYfqujMYC1qWBJG7Sb-5">
          <mxGeometry relative="1" as="geometry" />
        </mxCell>
        <mxCell id="MGDYfqujMYC1qWBJG7Sb-4" value="&lt;b&gt;提交问题&lt;/b&gt;" style="rounded=1;whiteSpace=wrap;html=1;" vertex="1" parent="1">
          <mxGeometry x="600" y="440" width="100" height="40" as="geometry" />
        </mxCell>
        <mxCell id="MGDYfqujMYC1qWBJG7Sb-24" value="" style="edgeStyle=orthogonalEdgeStyle;rounded=0;orthogonalLoop=1;jettySize=auto;html=1;" edge="1" parent="1" source="MGDYfqujMYC1qWBJG7Sb-5" target="MGDYfqujMYC1qWBJG7Sb-6">
          <mxGeometry relative="1" as="geometry" />
        </mxCell>
        <mxCell id="MGDYfqujMYC1qWBJG7Sb-5" value="&lt;b&gt;测试完成&lt;/b&gt;" style="rounded=1;whiteSpace=wrap;html=1;" vertex="1" parent="1">
          <mxGeometry x="600" y="560" width="100" height="40" as="geometry" />
        </mxCell>
        <mxCell id="MGDYfqujMYC1qWBJG7Sb-27" value="" style="edgeStyle=orthogonalEdgeStyle;rounded=0;orthogonalLoop=1;jettySize=auto;html=1;" edge="1" parent="1" source="MGDYfqujMYC1qWBJG7Sb-6" target="MGDYfqujMYC1qWBJG7Sb-26">
          <mxGeometry relative="1" as="geometry" />
        </mxCell>
        <mxCell id="MGDYfqujMYC1qWBJG7Sb-6" value="&lt;b&gt;修复&lt;/b&gt;" style="rounded=1;whiteSpace=wrap;html=1;" vertex="1" parent="1">
          <mxGeometry x="430" y="560" width="100" height="40" as="geometry" />
        </mxCell>
        <mxCell id="MGDYfqujMYC1qWBJG7Sb-10" value="&lt;b&gt;结束&lt;/b&gt;" style="rounded=1;whiteSpace=wrap;html=1;" vertex="1" parent="1">
          <mxGeometry x="140" y="560" width="100" height="40" as="geometry" />
        </mxCell>
        <mxCell id="MGDYfqujMYC1qWBJG7Sb-11" value="" style="endArrow=classic;html=1;rounded=0;exitX=1;exitY=0.5;exitDx=0;exitDy=0;entryX=0;entryY=0.5;entryDx=0;entryDy=0;" edge="1" parent="1" source="MGDYfqujMYC1qWBJG7Sb-1" target="MGDYfqujMYC1qWBJG7Sb-3">
          <mxGeometry width="50" height="50" relative="1" as="geometry">
            <mxPoint x="580" y="450" as="sourcePoint" />
            <mxPoint x="630" y="400" as="targetPoint" />
          </mxGeometry>
        </mxCell>
        <mxCell id="MGDYfqujMYC1qWBJG7Sb-19" value="" style="edgeStyle=orthogonalEdgeStyle;rounded=0;orthogonalLoop=1;jettySize=auto;html=1;" edge="1" parent="1" source="MGDYfqujMYC1qWBJG7Sb-17" target="MGDYfqujMYC1qWBJG7Sb-4">
          <mxGeometry relative="1" as="geometry" />
        </mxCell>
        <mxCell id="MGDYfqujMYC1qWBJG7Sb-21" style="edgeStyle=orthogonalEdgeStyle;rounded=0;orthogonalLoop=1;jettySize=auto;html=1;entryX=0.5;entryY=0;entryDx=0;entryDy=0;exitX=0.486;exitY=0.944;exitDx=0;exitDy=0;exitPerimeter=0;" edge="1" parent="1" source="MGDYfqujMYC1qWBJG7Sb-17" target="MGDYfqujMYC1qWBJG7Sb-10">
          <mxGeometry relative="1" as="geometry">
            <Array as="points">
              <mxPoint x="481" y="482" />
              <mxPoint x="481" y="520" />
              <mxPoint x="190" y="520" />
            </Array>
          </mxGeometry>
        </mxCell>
        <mxCell id="MGDYfqujMYC1qWBJG7Sb-17" value="&lt;b&gt;发现问题&lt;/b&gt;" style="html=1;whiteSpace=wrap;aspect=fixed;shape=isoRectangle;" vertex="1" parent="1">
          <mxGeometry x="438.33000000000004" y="435" width="83.34" height="50" as="geometry" />
        </mxCell>
        <mxCell id="MGDYfqujMYC1qWBJG7Sb-20" value="&lt;b&gt;Y&lt;/b&gt;" style="text;html=1;align=center;verticalAlign=middle;resizable=0;points=[];autosize=1;strokeColor=none;fillColor=none;" vertex="1" parent="1">
          <mxGeometry x="540" y="430" width="30" height="30" as="geometry" />
        </mxCell>
        <mxCell id="MGDYfqujMYC1qWBJG7Sb-28" value="" style="edgeStyle=orthogonalEdgeStyle;rounded=0;orthogonalLoop=1;jettySize=auto;html=1;" edge="1" parent="1" source="MGDYfqujMYC1qWBJG7Sb-26" target="MGDYfqujMYC1qWBJG7Sb-10">
          <mxGeometry relative="1" as="geometry" />
        </mxCell>
        <mxCell id="MGDYfqujMYC1qWBJG7Sb-31" style="edgeStyle=orthogonalEdgeStyle;rounded=0;orthogonalLoop=1;jettySize=auto;html=1;entryX=0.5;entryY=1;entryDx=0;entryDy=0;" edge="1" parent="1" source="MGDYfqujMYC1qWBJG7Sb-26" target="MGDYfqujMYC1qWBJG7Sb-6">
          <mxGeometry relative="1" as="geometry">
            <Array as="points">
              <mxPoint x="332" y="620" />
              <mxPoint x="480" y="620" />
            </Array>
          </mxGeometry>
        </mxCell>
        <mxCell id="MGDYfqujMYC1qWBJG7Sb-26" value="&lt;b&gt;复测&lt;/b&gt;" style="html=1;whiteSpace=wrap;aspect=fixed;shape=isoRectangle;" vertex="1" parent="1">
          <mxGeometry x="290" y="555" width="83.34" height="50" as="geometry" />
        </mxCell>
        <mxCell id="MGDYfqujMYC1qWBJG7Sb-29" value="&lt;b&gt;Y&lt;/b&gt;" style="text;html=1;align=center;verticalAlign=middle;resizable=0;points=[];autosize=1;strokeColor=none;fillColor=none;" vertex="1" parent="1">
          <mxGeometry x="260" y="550" width="30" height="30" as="geometry" />
        </mxCell>
        <mxCell id="MGDYfqujMYC1qWBJG7Sb-30" value="&lt;b&gt;N&lt;/b&gt;" style="text;html=1;align=center;verticalAlign=middle;resizable=0;points=[];autosize=1;strokeColor=none;fillColor=none;" vertex="1" parent="1">
          <mxGeometry x="483.33" y="490" width="30" height="30" as="geometry" />
        </mxCell>
        <mxCell id="MGDYfqujMYC1qWBJG7Sb-32" value="&lt;b&gt;N&lt;/b&gt;" style="text;html=1;align=center;verticalAlign=middle;resizable=0;points=[];autosize=1;strokeColor=none;fillColor=none;" vertex="1" parent="1">
          <mxGeometry x="384" y="620" width="30" height="30" as="geometry" />
        </mxCell>
      </root>
    </mxGraphModel>
  </diagram>
</mxfile>
